<svg xmlns="http://www.w3.org/2000/svg" xmlns:xlink="http://www.w3.org/1999/xlink" width="200" height="160" viewBox="0 0 200 160">
  <defs>
    <clipPath id="clip-path">
      <rect id="Rectangle_19845" data-name="Rectangle 19845" width="68.001" height="68" transform="translate(283.124)" fill="none"/>
    </clipPath>
    <clipPath id="clip-path-2">
      <path id="Path_74766" data-name="Path 74766" d="M334.442,33.107c-.174,0-.344.174-.448.306h0a32.4,32.4,0,0,1-8.793,7.8,45.512,45.512,0,0,1-7.3,3.349c.51.175,1,.336,1.452.481a50.536,50.536,0,0,0,6.543-3.1,28.538,28.538,0,0,0,8.688-8.366s.1-.439-.11-.466Z" fill="none"/>
    </clipPath>
    <clipPath id="clip-path-3">
      <path id="Path_74767" data-name="Path 74767" d="M311.442,45.045h.005a.2.2,0,0,0-.033.273.22.22,0,0,0,.062.051.2.2,0,0,0,.308-.14h.011a1.442,1.442,0,0,1,.233,1.2c-.125.048-2.566.994-2.8,1.133a1.349,1.349,0,0,0-.767,1.152,2.483,2.483,0,0,0,.253.9c.233.238.57-.083.559-.155a3.852,3.852,0,0,1-.067-.81c.048-.116.089-.238.192-.275s2.791-.9,2.885-.93l.039.039c.148.113.388,1.159.807,1.333.319.16.667-.063.55-.283-.069-.129-.282-.158-.4.045-.293-.116-.342-.931-.353-1a1.083,1.083,0,0,1,.057-.334c.706-.21,1.906-.58,3.371-1.092-.477-.176-.971-.365-1.477-.564-.95.3-1.724.526-2.223.667a7.239,7.239,0,0,1-.438-.93.622.622,0,0,0-.524-.36h-.009a.43.43,0,0,0-.246.078" fill="none"/>
    </clipPath>
    <clipPath id="clip-path-4">
      <path id="Path_74768" data-name="Path 74768" d="M299.65,33.447v-.013l.015.136a28.541,28.541,0,0,0,8.69,8.372,50.392,50.392,0,0,0,6.542,3.1q.387.15.761.3c.507.194,1,.376,1.466.546.262.094.514.183.761.27,1.465.511,2.666.883,3.372,1.092a1.229,1.229,0,0,1,.056.334c-.011.071-.059.887-.354,1a.228.228,0,0,0-.3-.128.223.223,0,0,0-.1.083.255.255,0,0,0,.181.313h.005c.772.187.956-1.2,1.17-1.363l.04-.042c.094.03,2.782.893,2.884.932s.144.157.191.273a3.622,3.622,0,0,1-.065.812c-.019.068.346.383.556.154a2.487,2.487,0,0,0,.256-.9,1.353,1.353,0,0,0-.77-1.151c-.227-.14-2.668-1.086-2.8-1.133a1.457,1.457,0,0,1,.235-1.2h.01l.01.014a.159.159,0,0,0,.1.126.224.224,0,0,0,.285-.09c.066-.131-.011-.273-.267-.3-.145-.018-.367.019-.567.352a4.465,4.465,0,0,0-.36.823c-.016.029-.076.107-.076.107-.5-.14-1.274-.365-2.222-.665l-.775-.253c-.461-.151-.95-.319-1.464-.5-.252-.09-.511-.183-.774-.28a45.453,45.453,0,0,1-7.3-3.347,32.489,32.489,0,0,1-8.794-7.8l-.035-.043-.012-.015-.032-.033-.019-.018-.034-.032-.021-.019-.036-.031-.023-.018L300,33.186l-.021-.016-.044-.024-.021-.01-.059-.025L299.8,33.1c-.152.049-.157.132-.152.345" fill="none"/>
    </clipPath>
    <clipPath id="clip-path-5">
      <path id="Path_74769" data-name="Path 74769" d="M309.3,36.223h0a7.816,7.816,0,0,1,4.264-2.462c2.393-.224,2.914,1.154,2.914,1.154l-.223-3.03a11.639,11.639,0,0,0-1.648-4.574l-4.93-7.936c-.339.79-3.61,11.057-.377,16.847" fill="none"/>
    </clipPath>
    <clipPath id="clip-path-6">
      <path id="Path_74770" data-name="Path 74770" d="M314.163,36.5h0a4.817,4.817,0,0,0-.191-1.417,8.559,8.559,0,0,0-2.2.709c-.665.279-1.3.634-1.963.907a4.784,4.784,0,0,1-1.025.328c-1.334.216-1.8-.291-1.8-.291a4.945,4.945,0,0,0,.916,2.246,9.04,9.04,0,0,0,1.265-.328c3.559-.79,5.139.307,6.2.494.042-.085.846-2.537.821-2.649-.128-.568-.919-1.184-1.078-1.314a2.775,2.775,0,0,1-.313.979c.116-.683.174-1.472.193-1.758l-.464-.114c-.022.15-.259,1.841-.354,2.208" fill="none"/>
    </clipPath>
    <clipPath id="clip-path-7">
      <path id="Path_74771" data-name="Path 74771" d="M323.282,36.3h0a42.775,42.775,0,0,1-.812-5.47v-3.2c.261.154.337.2.276.567s-.076,2.007-.061,2.13c.352-.123.735-1.624.858-1.517a13.852,13.852,0,0,1,1.1,4.167c.2,1.977-.134,4.075-.424,4.336a1.393,1.393,0,0,0,.653.521c-.05,0-.1.007-.152.007-.524,0-1.078-.254-1.442-1.539m.584-10.3a8.613,8.613,0,0,1,1.577.166A9.183,9.183,0,0,1,323.866,26m-4.4-1.154a1.968,1.968,0,0,1,1.6-.2c-.64.2-1.4.088-1.932.481a2.174,2.174,0,0,1,.332-.281m3.609-1.117h0a4.871,4.871,0,0,1,1.451-1.225,1.283,1.283,0,0,1,.413-.143,1.4,1.4,0,0,0-.275.209l-1.682,1.609c-.108-.127-.011-.319.093-.449m-2.27-2.662a.7.7,0,0,0-.17.023h0c-.131.032-.737.248-.722.433.007.081.481.4.559.508a10.583,10.583,0,0,1,.9,1.452,17.086,17.086,0,0,0-1.26-1.349.331.331,0,0,0-.463-.059l-.025.022a3.859,3.859,0,0,0-1.374,1.775l.882-.746c.243-.2.471-.322.765-.156a5.273,5.273,0,0,1,1.184.911c-.546-.079-1.029-.54-1.6-.439a1.449,1.449,0,0,0-.877.691,4.675,4.675,0,0,0-.794,2.878,11.328,11.328,0,0,1,1.052-1.618,1.98,1.98,0,0,0-.306.638,2.739,2.739,0,0,0-.017,1.361,3.162,3.162,0,0,1,1.225-1.824,2.759,2.759,0,0,1,1.388-.293,3.413,3.413,0,0,0-1.835,1.251,2.563,2.563,0,0,0-.542,1.557,1.724,1.724,0,0,0,.765,1.418,6.069,6.069,0,0,1,.074-1.326A2.273,2.273,0,0,1,320.2,27a1.426,1.426,0,0,1,1.207-.432,4.067,4.067,0,0,0-1.1,1.5,2.122,2.122,0,0,0,.086,1.813c.064.11.169.225.3.206.166-.025.206-.243.207-.411a4.662,4.662,0,0,1,.364-2.169,4.069,4.069,0,0,0-.184,2.1c.184.7.276.643.276.643.03-.624.042-1.25.114-1.873a6.413,6.413,0,0,1,.266-1.486c-.012.275-.022.552-.029.828q-.033,1.23-.036,2.461a13.742,13.742,0,0,0,.038,1.848c.092.69.747,3.579.717,4.024a1.946,1.946,0,0,1-1.357,1.913c-1.207.315-1.929.647-2.1,1.182a12.115,12.115,0,0,1,2.67-.673,15.7,15.7,0,0,1,5.638.63c.518-.381,1.008-.766,1.467-1.149a20.636,20.636,0,0,1-2.518-.245c-.368-.154-.772-.572-.674-1.625a25.124,25.124,0,0,0-.445-4.948c-.107-.582-.735-2.206-.812-2.512a4.919,4.919,0,0,1-.183-.767c.015-.091.537.46.673.475s-.06-.582-.275-.858-.383-.551.062-.414a2,2,0,0,1,1.329,1.591c.061.873.455-.885.348-1.3s-.136-.959-.613-1.133a1.157,1.157,0,0,1,.576.289c.327.426.168.307.321.628s.275,1.057.321.919a6.157,6.157,0,0,0-.169-2.4.877.877,0,0,0-.942-.473,4.8,4.8,0,0,0-1.41.244c.589-.584,1.331-1.181,2.185-.745a3.588,3.588,0,0,1,.844.673,3.647,3.647,0,0,0-.562-1.358,1.311,1.311,0,0,0-1.29-.54,2.654,2.654,0,0,0-1,.713,1.1,1.1,0,0,1-1.129.324q.936-.627,1.9-1.216a1.388,1.388,0,0,1,.364-.175c.515-.13.77.313,1.161.487a2.4,2.4,0,0,0-1.077-1.2.76.76,0,0,0-.616-.09,1.834,1.834,0,0,0-.571-.572c-.626-.356-1.178.179-1.666.524a.053.053,0,0,1-.072.008.054.054,0,0,1-.017-.027,1.518,1.518,0,0,1-.07-.879.135.135,0,0,0-.018-.1.137.137,0,0,0-.076-.035,1.941,1.941,0,0,0-.654-.019.315.315,0,0,0-.148.05c-.132.1-.032.478-.023.611.054.754.1,1.506.146,2.261a15.276,15.276,0,0,1-.749-2.67.534.534,0,0,0-.217-.334.34.34,0,0,0-.159-.039H320.8" fill="none"/>
    </clipPath>
    <clipPath id="clip-path-8">
      <path id="Path_74772" data-name="Path 74772" d="M316.556,43.992h0l.573.207.56-.206c1.517-.557,2.9-1.134,4.169-1.723a8.754,8.754,0,0,0-1.957.43,8.894,8.894,0,0,1-5.559,0,8.769,8.769,0,0,0-1.96-.431c1.267.59,2.654,1.167,4.172,1.723" fill="none"/>
    </clipPath>
    <clipPath id="clip-path-9">
      <path id="Path_74773" data-name="Path 74773" d="M319.9,41.135h0a8.887,8.887,0,0,1-5.557,0,8.588,8.588,0,0,0-3.039-.484,9.645,9.645,0,0,0-1.763.145c.412.24.838.479,1.293.716.149-.007.3-.011.471-.011a7.828,7.828,0,0,1,2.78.445,9.738,9.738,0,0,0,6.076,0,7.822,7.822,0,0,1,2.779-.445c.167,0,.32,0,.468.011.455-.236.881-.475,1.293-.716a9.63,9.63,0,0,0-1.761-.145h-.187a8.608,8.608,0,0,0-2.853.486" fill="none"/>
    </clipPath>
    <clipPath id="clip-path-10">
      <path id="Path_74774" data-name="Path 74774" d="M319.9,39.57h0a8.9,8.9,0,0,1-5.557,0,8.61,8.61,0,0,0-3.039-.484,9.541,9.541,0,0,0-3.482.623c.3.2.6.4.919.6a7.715,7.715,0,0,1,2.563-.377,7.806,7.806,0,0,1,2.78.445,9.753,9.753,0,0,0,6.076,0,8.9,8.9,0,0,1,5.341-.068q.471-.3.919-.6a9.524,9.524,0,0,0-3.482-.623h-.187a8.611,8.611,0,0,0-2.852.486" fill="none"/>
    </clipPath>
  </defs>
  <g id="Group_22821" data-name="Group 22821" transform="translate(-12075 -3795)">
    <rect id="Rectangle_17928" data-name="Rectangle 17928" width="200" height="160" transform="translate(12075 3795)" fill="#fff"/>
    <g id="Group_22820" data-name="Group 22820" transform="translate(-24.125 14.248)">
      <g id="Group_29743" data-name="Group 29743" transform="translate(11882 3826.752)">
        <g id="Group_29742" data-name="Group 29742" clip-path="url(#clip-path)">
          <path id="Path_74735" data-name="Path 74735" d="M317.212.485A33.491,33.491,0,1,0,350.7,33.976v-.007A33.531,33.531,0,0,0,317.212.485m20.962,33.49a20.966,20.966,0,1,1-20.966-20.968,20.966,20.966,0,0,1,20.966,20.968" fill="#8e1537"/>
          <path id="Path_74736" data-name="Path 74736" d="M335.41,23.44a21.082,21.082,0,0,0-36.517-.032l-.694-.866-.735.971-.79-.948-.8.972-.763-.981-.739.974-.783-.958-.765.966-.778-.95-.82.962-.8-.97-.784.957-.768-.981-.736.974-.788-.966-.734.973v0l-.665-.8a33.131,33.131,0,0,1,62.36-.03l-.651.829h0l-.733-.973-.788.966-.737-.974-.767.981-.784-.957-.8.97-.818-.962-.778.95-.763-.966-.785.958-.739-.974-.763.981-.8-.972-.788.948-.734-.971Z" fill="#fff"/>
          <path id="Path_74737" data-name="Path 74737" d="M317.129.837A33.163,33.163,0,1,1,283.961,34,33.162,33.162,0,0,1,317.129.837m0-.837a34,34,0,1,0,33.995,34h0a34.042,34.042,0,0,0-34-34" fill="#fff"/>
          <path id="Path_74738" data-name="Path 74738" d="M313.237,5.659a1.969,1.969,0,0,0-1.665,2.232,2.112,2.112,0,0,0,.045.221,2.628,2.628,0,0,0,.393,1.072,11.034,11.034,0,0,1-1.7.323,1.212,1.212,0,0,1-1.055-.662l-.267-.523c-.667-1.3-2.3-1.381-3.482-.2a5.309,5.309,0,0,0-.758,1l-1.454-2.781-1.118.572,2.57,4.96a32.232,32.232,0,0,0-5.029,3.717c-.327.324-.627.3-.977-.048l-1.353-1.37-.892.884,2.571,2.6c.4.405.477.7.207.966a2.643,2.643,0,0,1-.218.192l.623.859a4.019,4.019,0,0,0,.378-.337,1.628,1.628,0,0,0-.091-2.557,2.239,2.239,0,0,0,.539-.393,23.58,23.58,0,0,1,2.826-2.255,31.621,31.621,0,0,1,5.131-2.772,1.525,1.525,0,0,0,.933-1.053,1.728,1.728,0,0,0,1.35.359c.4-.068,1.025-.31,3.3-.673,1.143-.184,1.74-1.143,1.518-2.518a1.932,1.932,0,0,0-2.007-1.854,1.893,1.893,0,0,0-.318.039m-5.5,4.683-1.874.958-.6-1.124c.342-.8,1.255-1.737,1.942-1.71a.94.94,0,0,1,.787.6l.115.226c.292.571.221.75-.374,1.055m6.022-1.441c-.5.082-.812-.207-.937-.984-.111-.688.09-1.087.59-1.168s.835.232.947.919c.129.8-.08,1.149-.6,1.233m-1.513-4.04-.886-.59.59-.886.886.59Zm1.515-.315-.887-.59.59-.885.887.589Zm8.87.544-.6-.881.881-.6.6.881Zm-1.521-.281-.6-.881.881-.6.6.881ZM331.7,6.99l-1.118-.576-2.445,4.853a23.158,23.158,0,0,0-2.428-1.077,21.934,21.934,0,0,0-2.241-.7c-.4-.1-.488-.4-.409-.808l.483-2.524-1.971-.378a2.011,2.011,0,0,0-2.359,1.586,2.074,2.074,0,0,0-.035.293,1.893,1.893,0,0,0,1.239,2.373,1.808,1.808,0,0,0,.326.072,1.378,1.378,0,0,0,1.4-.6c-.04.529.48.924.92,1.045.677.184,1.5.406,2.044.619a26.705,26.705,0,0,1,3.638,1.674Zm-9.734.908c-.186.968-.458,1.238-1.018,1.13-.514-.1-.7-.42-.564-1.138.152-.791.555-1.185,1.1-1.083l.659.13Zm11.6,2.886a1.967,1.967,0,0,0-2.757.373,1.844,1.844,0,0,0-.161.248,1.757,1.757,0,0,0,.065,2.483,1.791,1.791,0,0,0,.5.334,1.28,1.28,0,0,0,.9.147,1.183,1.183,0,0,1-1.588.527l-.025-.013a1.925,1.925,0,0,1-.714-.757l-.908.551a2.925,2.925,0,0,0,1.092,1.129A2.214,2.214,0,0,0,333.005,15l.005-.008.9-1.249a1.93,1.93,0,0,0-.047-2.728,1.9,1.9,0,0,0-.289-.23m-.655,2.245a.782.782,0,0,1-1.056.33c-.023-.012-.045-.026-.067-.04-.435-.277-.463-.676-.14-1.2.4-.653.841-.754,1.275-.443s.46.732-.011,1.349m5.067,4.522-1.651,1.574-2.9-3.038.811-.774,2.054,2.154.838-.8a.932.932,0,0,0,.084-1.315.652.652,0,0,0-.051-.054,3.05,3.05,0,0,0-1.114-.826l.5-.973A5.263,5.263,0,0,1,338,14.61a1.942,1.942,0,0,1-.011,2.936" fill="#8e1537"/>
          <path id="Path_74739" data-name="Path 74739" d="M288.834,32.27a1.657,1.657,0,0,1,1.626,1.687h0a1.655,1.655,0,0,1-1.67,1.64h-.01a1.584,1.584,0,0,1-1.155-.5,1.677,1.677,0,0,1,.038-2.357,1.589,1.589,0,0,1,1.171-.468m-.013.852a.911.911,0,0,0-.636.227.746.746,0,0,0-.265.57.772.772,0,0,0,.246.589.958.958,0,0,0,1.27.021.774.774,0,0,0,.265-.581.745.745,0,0,0-.246-.577.915.915,0,0,0-.634-.248m2.362.965a.426.426,0,0,1,.424.428.3.3,0,0,1,0,.03.425.425,0,0,1-.144.336.433.433,0,0,1-.293.1.405.405,0,0,1-.286-.111.434.434,0,0,1-.125-.338.417.417,0,0,1,.139-.336.4.4,0,0,1,.287-.108m.319-1.013a.432.432,0,0,1,.134.344.414.414,0,0,1-.145.333.406.406,0,0,1-.293.108.389.389,0,0,1-.286-.117.415.415,0,0,1-.125-.338.44.44,0,0,1,.139-.336.418.418,0,0,1,.287-.1.434.434,0,0,1,.289.108" fill="#fff"/>
          <path id="Path_74740" data-name="Path 74740" d="M287.841,36.521l2.414-.266.093.844-1.263.139a1.586,1.586,0,0,0-.735.233.619.619,0,0,0-.266.621l.043.39-.755.083-.045-.413q-.061-.66.044-.743-.875.071-1.908-1.277l.616-.474a1.9,1.9,0,0,0,1.764.863" fill="#fff"/>
          <path id="Path_74741" data-name="Path 74741" d="M287.369,38.55l.737-.186.226.893,1.918-.486.207.82-.875.221a1.571,1.571,0,0,0-.693.334.614.614,0,0,0-.174.647l.035.143,1.923-.486.207.823-1.043.263a1.292,1.292,0,0,0-.573.338.609.609,0,0,0-.124.588l.037.148,2.288-.578.207.818-3.022.76-.244-.964c-.108-.428-.135-.671-.083-.729l-.094.025-.243-.962c-.111-.437-.138-.685-.083-.742l-.1.025Z" fill="#fff"/>
          <path id="Path_74742" data-name="Path 74742" d="M290.395,45.761l2.751-1.925.354.771-2.754,1.925.2.445,3.694-1.7.356.773-4.385,2.02-1.4-3.052.69-.318Zm3.364-2.624.07.151a.2.2,0,0,1,.07-.048.768.768,0,0,1,.2-.053.582.582,0,0,1,.62.324.6.6,0,0,1,.048.16.7.7,0,0,1-.152.508l-.371-.273a.278.278,0,0,0,.071-.164.16.16,0,0,0-.011-.037.137.137,0,0,0-.038-.048.111.111,0,0,0-.09-.018.117.117,0,0,0-.04.013.108.108,0,0,0-.045.037.131.131,0,0,0-.019.129l.239.518-.41.189-.552-1.2Z" fill="#fff"/>
          <rect id="Rectangle_19841" data-name="Rectangle 19841" width="4.827" height="0.852" transform="matrix(0.856, -0.517, 0.517, 0.856, 291.249, 49.098)" fill="#fff"/>
          <path id="Path_74743" data-name="Path 74743" d="M294.834,49.525a1.67,1.67,0,0,1,1.427,1.869,1.586,1.586,0,0,1-.629,1.093l-.893.69c-.044.028-.083.055-.114.079a1.185,1.185,0,0,1-.248.145,1.562,1.562,0,0,1-1.12.007,3.117,3.117,0,0,1-1.423-1.153l.608-.465a2.8,2.8,0,0,0,.881.825q.346.18.444.146l-.454-.6a1.648,1.648,0,0,1,1.521-2.641m-1.07,1.568a.755.755,0,0,0,.148.615l.5.651.71-.542a.9.9,0,0,0,.356-.575.784.784,0,0,0-.632-.911c-.023,0-.045-.007-.068-.009a.959.959,0,0,0-1.01.771" fill="#fff"/>
          <path id="Path_74744" data-name="Path 74744" d="M298.42,53.961a1.456,1.456,0,0,1,1.3.35l.51.441c.024.021.05.014.08-.021l.114-.132.606.524-1.559,1.8a.285.285,0,0,0-.073.212.323.323,0,0,0,.085.206l.256.221-.5.575-.256-.221a1.283,1.283,0,0,1-.365-.508,1.127,1.127,0,0,1-.09-.458,1.484,1.484,0,0,1-.792-.359,1.605,1.605,0,0,1-.27-.3,1.458,1.458,0,0,1-.256-.751,1.4,1.4,0,0,1,.143-.764,1.647,1.647,0,0,1,.227-.345,1.456,1.456,0,0,1,.84-.475m-.352,1.187a.66.66,0,0,0,.047.717.769.769,0,0,0,.131.148.7.7,0,0,0,.435.168.692.692,0,0,0,.592-.253l.476-.55c.013,0,.021.008.022.006s-.013-.019-.048-.049l-.51-.44a.693.693,0,0,0-.624-.159.7.7,0,0,0-.4.231.824.824,0,0,0-.117.181m1.565-2.45a.435.435,0,0,1,.35.119.418.418,0,0,1,.163.325.408.408,0,0,1-.1.294.39.39,0,0,1-.274.144.419.419,0,0,1-.339-.12.441.441,0,0,1-.169-.323.415.415,0,0,1,.106-.285.435.435,0,0,1,.269-.152m.572.9a.461.461,0,0,1,.788.3.436.436,0,0,1-.112.288.414.414,0,0,1-.269.148.438.438,0,0,1-.339-.121.415.415,0,0,1-.169-.322.4.4,0,0,1,.1-.289" fill="#fff"/>
          <path id="Path_74745" data-name="Path 74745" d="M299.185,58.7a.525.525,0,0,1,.591.4.466.466,0,1,1-.864-.2.457.457,0,0,1,.273-.2m.054-.564.5-.575.682.484,1.314-1.949.7.473-.71,1.054a1.553,1.553,0,0,0-.294.711.621.621,0,0,0,.3.6l.284.16-.35.675-.37-.212-.027-.018q-.441-.3-.466-.551l-.109.163Zm.585,1.368a.474.474,0,0,1,.267-.2.481.481,0,0,1,.374.088.47.47,0,0,1,.219.312.46.46,0,0,1-.348.517.48.48,0,0,1-.37-.088.47.47,0,0,1-.222-.314.458.458,0,0,1,.079-.319" fill="#fff"/>
          <path id="Path_74746" data-name="Path 74746" d="M301.54,59.705l.345-.677,1.039.53v-.079a1.559,1.559,0,0,1,.164-.8,1.7,1.7,0,0,1,.265-.376,1.726,1.726,0,0,1,1.979-.343,1.7,1.7,0,0,1,.38.267,1.724,1.724,0,0,1,.543,1.274l-.794.034a1.029,1.029,0,0,0-.278-.755.813.813,0,0,0-.186-.131.908.908,0,0,0-1.016.188,1.43,1.43,0,0,0-.117.19,1,1,0,0,0-.118.46.794.794,0,0,0,.274.593.742.742,0,0,0,.182.126l1.3.663-.345.677Z" fill="#fff"/>
          <path id="Path_74747" data-name="Path 74747" d="M308.01,57.464l.8.293-1.352,3.694c-.031.083-.008.139.066.166l.755.277-.253.717-.781-.285a.959.959,0,0,1-.558-.47.84.84,0,0,1-.029-.7Z" fill="#fff"/>
          <path id="Path_74748" data-name="Path 74748" d="M308.027,62.61l.252-.717.925.314h.112c.055-.009.086-.03.093-.062l.151-.694a1.662,1.662,0,1,1,3.248.708,1.476,1.476,0,0,1-.233.554c.014.033.031.083.054.149s.142.122.354.168l.593.065-.1.754-.835-.116a.846.846,0,0,1-.68-.461,1.716,1.716,0,0,1-2.087-.436.887.887,0,0,1-.351.108,1.26,1.26,0,0,1-.576-.016Zm2.363-.978a.91.91,0,0,0,.095.668.756.756,0,0,0,.512.367.765.765,0,0,0,.627-.128.866.866,0,0,0,.368-.558.9.9,0,0,0-.1-.676.788.788,0,0,0-1.078-.283c-.018.011-.036.022-.053.034a.921.921,0,0,0-.365.576" fill="#fff"/>
          <path id="Path_74749" data-name="Path 74749" d="M313.1,63.814l.07-.757.8.075.218-2.341.843.079-.118,1.265A1.545,1.545,0,0,0,315,62.9a.621.621,0,0,0,.552.379l.313.029-.07.757-.325-.03h-.032a.9.9,0,0,1-.673-.259l-.019.2Zm.561-3.794a.418.418,0,0,1,.441-.392l.042,0a.431.431,0,0,1,.407.47.39.39,0,0,1-.139.276.419.419,0,0,1-.347.1.441.441,0,0,1-.324-.165.418.418,0,0,1-.08-.294m1.117.116a.426.426,0,0,1,.457-.391h.032a.425.425,0,0,1,.324.17.433.433,0,0,1,.077.3.41.41,0,0,1-.133.277.435.435,0,0,1-.346.1.416.416,0,0,1-.325-.165.4.4,0,0,1-.086-.294" fill="#fff"/>
          <path id="Path_74750" data-name="Path 74750" d="M318.256,63.243a2.11,2.11,0,0,1-.175-.976.826.826,0,0,0-.236-.567.664.664,0,0,0-.516-.222.84.84,0,0,0-.72.567l-.716-.357a1.782,1.782,0,0,1,.615-.731,1.543,1.543,0,0,1,.8-.239,1.49,1.49,0,0,1,1.125.463,1.554,1.554,0,0,1,.484,1.1,1.214,1.214,0,0,0,.22.767.621.621,0,0,0,.512.163l.019.76-3.944.1-.018-.759Zm-.634,1.191a.489.489,0,0,1,.843.264v.024a.4.4,0,0,1-.114.305.442.442,0,0,1-.353.148.464.464,0,0,1-.359-.131.43.43,0,0,1-.12-.3.457.457,0,0,1,.1-.312" fill="#fff"/>
          <path id="Path_74751" data-name="Path 74751" d="M322.012,62.865l-1.184-3.145.835-.153,1.187,3.145.485-.09-.734-3.994.829-.152.871,4.747-3.3.607-.139-.753Z" fill="#fff"/>
          <rect id="Rectangle_19842" data-name="Rectangle 19842" width="0.852" height="4.828" transform="translate(324.061 58.252) rotate(-16.712)" fill="#fff"/>
          <path id="Path_74752" data-name="Path 74752" d="M327.506,57.516a.437.437,0,0,1,.245-.275.414.414,0,0,1,.363-.022.4.4,0,0,1,.229.212.393.393,0,0,1,.025.308.418.418,0,0,1-.244.264.441.441,0,0,1-.362.029.422.422,0,0,1-.221-.209.431.431,0,0,1-.034-.307m.687,1.611a1.454,1.454,0,0,1,.83-1.058l.6-.3c.029-.014.033-.041.013-.082l-.077-.157.72-.353,1.048,2.141a.28.28,0,0,0,.166.15.329.329,0,0,0,.223,0l.3-.149.334.682-.3.149a1.292,1.292,0,0,1-.61.137,1.126,1.126,0,0,1-.457-.1,1.484,1.484,0,0,1-.641.589,1.677,1.677,0,0,1-.378.132,1.454,1.454,0,0,1-.792-.059,1.389,1.389,0,0,1-.647-.43,1.619,1.619,0,0,1-.228-.344,1.454,1.454,0,0,1-.109-.958m.361-1.786a.408.408,0,0,1-.029-.31.42.42,0,0,1,.245-.276.43.43,0,0,1,.372-.014.437.437,0,0,1,.222.216.409.409,0,0,1,.03.305.435.435,0,0,1-.252.265.414.414,0,0,1-.363.029.4.4,0,0,1-.226-.206m.593,2.575a.662.662,0,0,0,.677.236.741.741,0,0,0,.188-.062.73.73,0,0,0,.331-.976l-.32-.653a.059.059,0,0,0,.015-.017.129.129,0,0,0-.064.024l-.6.3a.741.741,0,0,0-.336.974.805.805,0,0,0,.121.179" fill="#fff"/>
          <path id="Path_74753" data-name="Path 74753" d="M332.358,60.008l-.334-.682.674-.5-1.281-1.972.709-.461.693,1.065a1.56,1.56,0,0,0,.54.549.626.626,0,0,0,.669-.045l.264-.172.414.638-.274.178-.027.018a.9.9,0,0,1-.69.214l.107.165Zm.461.207a.523.523,0,0,1,.6-.388.461.461,0,0,1,.337.518.471.471,0,1,1-.934-.129m.99-.275a.468.468,0,0,1-.076-.323.487.487,0,0,1,.227-.31.472.472,0,0,1,.373-.079.459.459,0,0,1,.34.523.482.482,0,0,1-.226.306.467.467,0,0,1-.376.081.455.455,0,0,1-.263-.2" fill="#fff"/>
          <path id="Path_74754" data-name="Path 74754" d="M334.626,58.478l-.441-.62.616-.416a.659.659,0,0,0,.068-.09c.027-.048.028-.085.007-.111l-.46-.54a1.662,1.662,0,1,1,2.53-2.156,1.51,1.51,0,0,1,.3.521l.151.047q.1.031.348-.18l.1-.157.668.4-.414.458a.84.84,0,0,1-.778.263,1.717,1.717,0,0,1-1.611,1.4.871.871,0,0,1-.126.345,1.267,1.267,0,0,1-.363.449Zm.437-2.327a.91.91,0,0,0,.589.329.8.8,0,0,0,.878-.762.872.872,0,0,0-.221-.63.9.9,0,0,0-.6-.326.787.787,0,0,0-.877.686.269.269,0,0,1-.005.063.92.92,0,0,0,.237.64" fill="#fff"/>
          <path id="Path_74755" data-name="Path 74755" d="M335.959,52.148a.436.436,0,0,1-.146-.3.453.453,0,0,1,.141-.359.465.465,0,0,1,.344-.168.474.474,0,0,1-.031.945.433.433,0,0,1-.307-.123m2.443,3.148-.558-.516.543-.589-1.727-1.594.573-.621.934.861a1.552,1.552,0,0,0,.659.4.621.621,0,0,0,.636-.209l.214-.231.559.515-.222.24-.022.025q-.36.39-.615.377l.144.132Z" fill="#fff"/>
          <path id="Path_74756" data-name="Path 74756" d="M337.239,50.9a.416.416,0,0,1-.1-.58.35.35,0,0,1,.029-.036.414.414,0,0,1,.316-.178.4.4,0,0,1,.3.089.39.39,0,0,1,.158.266.421.421,0,0,1-.1.345.441.441,0,0,1-.313.186.422.422,0,0,1-.29-.091m.7-.879a.461.461,0,0,1,.257-.8.431.431,0,0,1,.294.1.411.411,0,0,1,.161.261.433.433,0,0,1-.1.345.417.417,0,0,1-.313.186.4.4,0,0,1-.3-.086m2.2,3.394-.6-.467.492-.633-1.856-1.443.52-.668,1,.78a1.552,1.552,0,0,0,.69.341A.621.621,0,0,0,341,51.07l.194-.249.6.467-.2.257c-.005.008-.013.016-.02.026q-.326.418-.581.428l.155.12Z" fill="#fff"/>
          <path id="Path_74757" data-name="Path 74757" d="M338.166,48l.469-.711,4.028,2.655-.972,1.475L341.056,51l.5-.763Z" fill="#fff"/>
          <rect id="Rectangle_19843" data-name="Rectangle 19843" width="0.852" height="4.827" transform="translate(339.008 46.648) rotate(-60.698)" fill="#fff"/>
          <path id="Path_74758" data-name="Path 74758" d="M341.044,43.675a.433.433,0,0,1-.013-.369.418.418,0,0,1,.247-.267.408.408,0,0,1,.311,0,.387.387,0,0,1,.231.2.417.417,0,0,1,.007.36.445.445,0,0,1-.243.272.419.419,0,0,1-.3,0,.432.432,0,0,1-.237-.2m.636-.851a.427.427,0,0,1-.259-.546l.011-.027a.42.42,0,0,1,.248-.269.43.43,0,0,1,.308,0,.411.411,0,0,1,.233.2.439.439,0,0,1,.007.36.418.418,0,0,1-.242.272.4.4,0,0,1-.307.008m1.618,2.489a1.656,1.656,0,1,1,1.26-.054,1.6,1.6,0,0,1-1.26.054m.294-.8a.908.908,0,0,0,.676,0,.751.751,0,0,0,.437-.449.771.771,0,0,0-.038-.637.9.9,0,0,0-.51-.444.912.912,0,0,0-.683.005.773.773,0,0,0-.441.46.75.75,0,0,0,.042.626.915.915,0,0,0,.517.443" fill="#fff"/>
          <path id="Path_74759" data-name="Path 74759" d="M346.921,42.992a1.9,1.9,0,0,0-1.35-1.431l-2.354-.6.206-.817,2.355.6a2.671,2.671,0,0,1,1.889,2.011Z" fill="#fff"/>
          <rect id="Rectangle_19844" data-name="Rectangle 19844" width="0.852" height="4.825" transform="matrix(0.182, -0.983, 0.983, 0.182, 341.93, 38.99)" fill="#fff"/>
          <path id="Path_74760" data-name="Path 74760" d="M343.1,37.429a.443.443,0,0,1-.4-.481l.006-.039a.449.449,0,0,1,.178-.341.471.471,0,1,1,.213.861m4.754,1.523a1.9,1.9,0,0,0-1.53-1.236l-2.413-.273L344,36.6l2.413.273a2.672,2.672,0,0,1,2.143,1.738Z" fill="#fff"/>
          <path id="Path_74761" data-name="Path 74761" d="M344.419,35.168a1.669,1.669,0,0,1,.038-2.35,1.585,1.585,0,0,1,1.171-.468l1.128.013c.054,0,.1.007.139.008a1.2,1.2,0,0,1,.285.041,1.565,1.565,0,0,1,.882.688,3.117,3.117,0,0,1,.407,1.787l-.765-.019a2.821,2.821,0,0,0-.179-1.193q-.16-.355-.258-.39l-.012.748a1.648,1.648,0,0,1-2.836,1.13m1.811-.567a.758.758,0,0,0,.265-.575l.013-.819-.894-.015a.9.9,0,0,0-.636.23.782.782,0,0,0-.07,1.1.645.645,0,0,0,.051.053.96.96,0,0,0,1.27.02" fill="#fff"/>
          <path id="Path_74762" data-name="Path 74762" d="M317.21,12.649a21.323,21.323,0,1,1-21.327,21.324A21.322,21.322,0,0,1,317.21,12.649" fill="#8e1537"/>
          <path id="Path_74763" data-name="Path 74763" d="M317.21,13.262A20.71,20.71,0,1,1,296.5,33.971a20.71,20.71,0,0,1,20.71-20.709" fill="#bf952f"/>
          <path id="Path_74764" data-name="Path 74764" d="M333.993,33.409a32.4,32.4,0,0,1-8.793,7.8,45.468,45.468,0,0,1-7.3,3.35c.51.175,1,.336,1.451.481a50.615,50.615,0,0,0,6.544-3.1,28.518,28.518,0,0,0,8.688-8.367c0-.005.1-.439-.11-.466h-.032c-.174,0-.343.174-.448.307" fill="#fff"/>
          <path id="Path_74765" data-name="Path 74765" d="M333.993,33.409a32.4,32.4,0,0,1-8.793,7.8,45.468,45.468,0,0,1-7.3,3.35c.51.175,1,.336,1.452.481a50.679,50.679,0,0,0,6.544-3.1,28.527,28.527,0,0,0,8.687-8.367s.1-.439-.11-.466h-.032c-.174,0-.343.174-.448.307" fill="#fff"/>
        </g>
      </g>
      <g id="Group_29745" data-name="Group 29745" transform="translate(11882 3826.752)">
        <g id="Group_29744" data-name="Group 29744" clip-path="url(#clip-path-2)">
          <rect id="Rectangle_19846" data-name="Rectangle 19846" width="16.787" height="11.937" transform="translate(317.898 33.102)" fill="#fff"/>
        </g>
      </g>
      <g id="Group_29747" data-name="Group 29747" transform="translate(11882 3826.752)">
        <g id="Group_29746" data-name="Group 29746" clip-path="url(#clip-path-3)">
          <rect id="Rectangle_19847" data-name="Rectangle 19847" width="7.89" height="4.89" transform="translate(308.475 44.963)" fill="#fff"/>
        </g>
      </g>
      <g id="Group_29749" data-name="Group 29749" transform="translate(11882 3826.752)">
        <g id="Group_29748" data-name="Group 29748" clip-path="url(#clip-path-4)">
          <rect id="Rectangle_19848" data-name="Rectangle 19848" width="26.13" height="16.756" transform="translate(299.646 33.09)" fill="#fff"/>
        </g>
      </g>
      <g id="Group_29751" data-name="Group 29751" transform="translate(11882 3826.752)">
        <g id="Group_29750" data-name="Group 29750" clip-path="url(#clip-path-5)">
          <rect id="Rectangle_19849" data-name="Rectangle 19849" width="19.032" height="19.486" transform="matrix(0.742, -0.671, 0.671, 0.742, 297.688, 26.96)" fill="#fff"/>
        </g>
      </g>
      <g id="Group_29753" data-name="Group 29753" transform="translate(11882 3826.752)">
        <g id="Group_29752" data-name="Group 29752" clip-path="url(#clip-path-6)">
          <rect id="Rectangle_19850" data-name="Rectangle 19850" width="10.103" height="9.794" transform="matrix(0.742, -0.671, 0.671, 0.742, 304.556, 36.476)" fill="#fff"/>
        </g>
      </g>
      <g id="Group_29755" data-name="Group 29755" transform="translate(11882 3826.752)">
        <g id="Group_29754" data-name="Group 29754" clip-path="url(#clip-path-7)">
          <rect id="Rectangle_19851" data-name="Rectangle 19851" width="10.991" height="18.075" transform="translate(317.755 21.071)" fill="#fff"/>
        </g>
      </g>
      <g id="Group_29757" data-name="Group 29757" transform="translate(11882 3826.752)">
        <g id="Group_29756" data-name="Group 29756" clip-path="url(#clip-path-8)">
          <rect id="Rectangle_19852" data-name="Rectangle 19852" width="9.474" height="1.931" transform="translate(312.386 42.269)" fill="#fff"/>
        </g>
      </g>
      <g id="Group_29759" data-name="Group 29759" transform="translate(11882 3826.752)">
        <g id="Group_29758" data-name="Group 29758" clip-path="url(#clip-path-9)">
          <rect id="Rectangle_19853" data-name="Rectangle 19853" width="15.159" height="1.779" transform="translate(309.546 40.65)" fill="#fff"/>
        </g>
      </g>
      <g id="Group_29761" data-name="Group 29761" transform="translate(11882 3826.752)">
        <g id="Group_29760" data-name="Group 29760" clip-path="url(#clip-path-10)">
          <rect id="Rectangle_19854" data-name="Rectangle 19854" width="18.598" height="1.78" transform="translate(307.826 39.085)" fill="#fff"/>
        </g>
      </g>
    </g>
  </g>
</svg>
