<?xml version="1.0" encoding="UTF-8"?>
<svg id="Layer_2" data-name="Layer 2" xmlns="http://www.w3.org/2000/svg" xmlns:xlink="http://www.w3.org/1999/xlink" viewBox="0 0 25.73 25.25">
  <defs>
    <style>
      .cls-1 {
        fill: #fff;
      }

      .cls-2 {
        fill: url(#linear-gradient);
      }
    </style>
    <linearGradient id="linear-gradient" x1="7.1" y1="6.92" x2="20.68" y2="20.37" gradientUnits="userSpaceOnUse">
      <stop offset="0" stop-color="#951a3b"/>
      <stop offset="1" stop-color="#c33158"/>
    </linearGradient>
  </defs>
  <g id="Globe">
    <g>
      <rect class="cls-1" width="25.73" height="25.25" rx="3.02" ry="3.02"/>
      <path class="cls-2" d="M18.98,12.63c0,3.38-2.74,6.12-6.12,6.12s-6.12-2.74-6.12-6.12,2.74-6.12,6.12-6.12,6.12,2.74,6.12,6.12ZM14.33,10.13c-.42-3.08-2.52-3.08-2.94,0h2.94ZM10.66,8.36c-.47-.13-2.13,1.57-1.91,1.76.3-.06,1.12.1,1.3-.02.11-.07.32-1.49.61-1.74ZM16.98,10.13c.22-.19-1.44-1.9-1.91-1.76.28.25.5,1.67.61,1.74.19.12,1-.04,1.3.02ZM9.92,11.45c-1.87-.12-2.15-.11-1.92,1.84.11.9,1.21.38,1.92.51-.24-.7-.24-1.65,0-2.35ZM14.63,11.45h-3.53v2.35h3.53v-2.35ZM15.8,13.8c1.87.12,2.15.11,1.92-1.84-.11-.9-1.21-.38-1.92-.51.24.7.24,1.65,0,2.35ZM10.05,15.15c-.06-.04-1.46-.17-1.3.2.14.33,1.64,1.76,1.91,1.54-.28-.25-.5-1.67-.61-1.74ZM14.33,15.13h-2.94c.42,3.08,2.52,3.08,2.94,0ZM16.98,15.13c-.3.06-1.12-.1-1.3.02-.11.07-.32,1.49-.61,1.74.47.13,2.13-1.57,1.91-1.76Z"/>
    </g>
  </g>
</svg>